<?xml version="1.0" encoding="UTF-8"?>
<svg width="128px" height="128px" viewBox="0 0 128 128" version="1.1" xmlns="http://www.w3.org/2000/svg" xmlns:xlink="http://www.w3.org/1999/xlink">
    <title>QuickOn</title>
    <defs>
        <path d="M120,32 C115.581875,32 112,28.4181252 112,24 C112,19.5818748 108.418125,16 104,16 C99.5818748,16 96,12.4181252 96,8 C96,3.58187485 92.4181252,0 88,0 L40,0 C35.5818748,0 32,3.58187485 32,8 C32,12.4181252 28.4181252,16 24,16 C19.5818748,16 16,19.5818748 16,24 C16,28.4181252 12.4181252,32 8,32 C3.58187485,32 0,35.5818748 0,40 L0,88 C0,92.4181252 3.58187485,96 8,96 C12.4181252,96 16,99.5818748 16,104 C16,108.418125 19.5818748,112 24,112 C28.4181252,112 32,115.581875 32,120 C32,124.418125 35.5818748,128 40,128 L88,128 C92.4181252,128 96,124.418125 96,120 C96,115.581875 99.5818748,112 104,112 C108.418125,112 112,108.418125 112,104 C112,99.5818748 115.581875,96 120,96 C124.418125,96 128,92.4181252 128,88 L128,40 C128,35.5818748 124.418125,32 120,32 Z" id="path-1"></path>
    </defs>
    <g id="Page-1" stroke="none" stroke-width="1" fill="none" fill-rule="evenodd">
        <g id="QuickOn">
            <mask id="mask-2" fill="white">
                <use xlink:href="#path-1"></use>
            </mask>
            <use id="Vector" fill="#F8F8F8" fill-rule="nonzero" opacity="0.99" xlink:href="#path-1"></use>
        </g>
    </g>
</svg>