<?xml version="1.0" encoding="UTF-8"?>
<svg width="128px" height="128px" viewBox="0 0 128 128" version="1.1" xmlns="http://www.w3.org/2000/svg" xmlns:xlink="http://www.w3.org/1999/xlink">
    <title>QuickOff</title>
    <defs>
        <path d="M120,32 C115.581875,32 112,28.4181252 112,24 C112,19.5818748 108.418125,16 104,16 C99.5818748,16 96,12.4181252 96,8 C96,3.58187485 92.4181252,0 88,0 L40,0 C35.5818748,0 32,3.58187485 32,8 C32,12.4181252 28.4181252,16 24,16 C19.5818748,16 16,19.5818748 16,24 C16,28.4181252 12.4181252,32 8,32 C3.58187485,32 0,35.5818748 0,40 L0,88 C0,92.4181252 3.58187485,96 8,96 C12.4181252,96 16,99.5818748 16,104 C16,108.418125 19.5818748,112 24,112 C28.4181252,112 32,115.581875 32,120 C32,124.418125 35.5818748,128 40,128 L88,128 C92.4181252,128 96,124.418125 96,120 C96,115.581875 99.5818748,112 104,112 C108.418125,112 112,108.418125 112,104 C112,99.5818748 115.581875,96 120,96 C124.418125,96 128,92.4181252 128,88 L128,40 C128,35.5818748 124.418125,32 120,32 Z" id="path-1"></path>
    </defs>
    <g id="Page-1" stroke="none" stroke-width="1" fill="none" fill-rule="evenodd">
        <g id="QuickOff">
            <mask id="mask-2" fill="white">
                <use xlink:href="#path-1"></use>
            </mask>
            <path stroke="#F8F8F8" d="M95.5,8 C95.5,12.6942675 99.3057325,16.5 104,16.5 C108.141983,16.5 111.5,19.8580172 111.5,24 C111.5,28.6942675 115.305732,32.5 120,32.5 C124.141983,32.5 127.5,35.8580172 127.5,40 L127.5,88 C127.5,92.1419828 124.141983,95.5 120,95.5 C115.305732,95.5 111.5,99.3057325 111.5,104 C111.5,108.141983 108.141983,111.5 104,111.5 C99.3057325,111.5 95.5,115.305732 95.5,120 C95.5,124.141983 92.1419828,127.5 88,127.5 L40,127.5 C35.8580172,127.5 32.5,124.141983 32.5,120 C32.5,115.305732 28.6942675,111.5 24,111.5 C19.8580172,111.5 16.5,108.141983 16.5,104 C16.5,99.3057325 12.6942675,95.5 8,95.5 C3.85801722,95.5 0.5,92.1419828 0.5,88 L0.5,40 C0.5,35.8580172 3.85801722,32.5 8,32.5 C12.6942675,32.5 16.5,28.6942675 16.5,24 C16.5,19.8580172 19.8580172,16.5 24,16.5 C28.6942675,16.5 32.5,12.6942675 32.5,8 C32.5,3.85801722 35.8580172,0.5 40,0.5 L88,0.5 C92.1419828,0.5 95.5,3.85801722 95.5,8 Z"></path>
        </g>
    </g>
</svg>